<svg width="602" height="600" viewBox="0 0 602 600" fill="none" xmlns="http://www.w3.org/2000/svg">
<path d="M532.963 299.463C532.963 313.015 531.791 326.312 529.549 339.202C528.327 346.13 526.849 352.957 525.066 359.682C515.182 396.568 496.434 429.785 471.266 456.99C462.147 466.874 452.161 475.943 441.411 484.094C431.527 491.634 420.981 498.41 409.926 504.32C394.948 512.319 379.001 518.687 362.291 523.272C342.778 528.622 322.246 531.424 301.052 531.424C291.322 531.424 281.744 530.812 272.369 529.641C193.809 519.961 127.375 470.95 93.4439 402.936C80.2487 376.444 71.8934 347.098 69.7027 316.072C69.3461 310.569 69.0913 305.016 69.0913 299.463C69.0913 264.463 76.8352 231.296 90.6928 201.543C103.073 174.949 120.395 151.106 141.385 131.186C160.796 112.743 183.416 97.612 208.329 86.7603C236.707 74.3803 268.09 67.5024 301.002 67.5024C401.01 67.5024 486.244 130.778 518.799 219.528C526.9 241.638 531.74 265.278 532.759 289.987C532.861 293.146 532.963 296.304 532.963 299.463Z" fill="url(#paint0_radial_1_7181)"/>
<path d="M93.3928 402.935C91.8135 399.776 90.2851 396.516 88.8586 393.255C78.3126 369.463 71.6895 343.633 69.7025 316.478C69.7025 316.326 69.7025 316.224 69.7025 316.071C74.3897 315.46 80.809 317.599 85.4961 330.845C91.5588 348.015 119.783 389.842 93.4438 402.935H93.3928Z" fill="#F79C41"/>
<path d="M275.577 363.503C275.271 365.388 274.609 367.171 273.692 368.802C266.305 382.048 240.576 388.569 211.893 383.627C186.929 379.297 167.009 367.477 160.59 354.639C158.705 350.868 157.992 347.047 158.654 343.226C161.558 326.516 189.63 322.491 221.93 328.146C254.23 333.75 278.532 346.844 275.628 363.503H275.577Z" fill="#F79C41"/>
<path d="M206.853 253.049C206.853 253.049 206.853 253.049 206.853 253.1C200.433 262.78 180.411 253.915 157.128 238.682C138.125 226.251 124.573 213.871 123.656 204.446C123.453 202.306 123.911 200.268 125.083 198.434C131.502 188.653 156.976 187.99 180.309 203.274C203.643 218.558 213.323 243.268 206.904 253.049H206.853Z" fill="#F79C41"/>
<path d="M463.829 395.954C445.029 411.646 422.511 415.671 413.595 404.921C413.136 404.361 412.729 403.8 412.372 403.189C405.545 392.031 413.697 372.009 431.528 357.184C449.665 342.053 471.216 337.773 480.743 347.096C481.1 347.453 481.456 347.81 481.762 348.166C490.678 358.865 482.679 380.263 463.829 395.954Z" fill="#F79C41"/>
<path d="M328.206 267.265C309.202 282.294 289.894 290.598 278.838 276.639C277.768 275.314 276.902 273.888 276.138 272.359C269.107 258.196 276.036 237.665 293.256 224.062C312.259 209.032 338.191 201.951 355.921 224.316C356.023 224.469 356.175 224.622 356.226 224.775C366.518 238.633 347.005 252.388 328.206 267.265Z" fill="#F79C41"/>
<path d="M252.298 477.165C249.547 479.814 244.096 481.291 235.537 480.884C204.154 479.508 170.07 441.298 179.597 429.02C179.75 428.816 179.903 428.663 180.056 428.51C189.939 417.353 214.7 437.426 227.334 444.049C248.121 454.952 259.584 470.185 252.298 477.165Z" fill="#F79C41"/>
<path d="M375.384 449.042C375.384 456.276 365.602 463.918 350.114 464.581C321.787 465.803 305.637 460.352 301.816 450.264C301.409 449.195 301.154 448.074 301.001 446.851C299.626 434.573 325.558 436.662 339.211 435.948C364.838 434.573 375.333 441.604 375.384 449.093V449.042Z" fill="#F79C41"/>
<path d="M461.18 286.215C458.073 290.852 452.061 294.01 444.266 294.01C419.71 294.01 386.951 276.281 391.078 259.876C391.536 257.991 392.198 256.361 393.064 255.036C399.382 244.847 415.328 249.788 430.663 253.049C461.384 259.57 467.956 276.281 461.231 286.215H461.18Z" fill="#F79C41"/>
<path d="M381.499 165.726C381.193 165.013 381.041 164.198 380.939 163.332C380.327 156.352 387.205 146.163 400.604 142.495C409.316 140.1 421.085 140.406 428.37 144.889C431.58 146.876 433.872 149.627 434.739 153.397C436.827 162.72 385.83 176.476 381.55 165.675L381.499 165.726Z" fill="#F79C41"/>
<path d="M241.446 144.024C239.714 145.043 237.676 144.738 235.485 142.547C220.456 127.518 219.131 102.961 227.283 98.8855C230.492 97.2552 233.294 96.7457 235.689 97.0005C251.992 98.8346 250.209 138.726 241.446 143.973V144.024Z" fill="#F79C41"/>
<path d="M498.826 229.869C497.756 230.378 496.482 230.48 495.107 230.124C489.401 228.646 481.963 219.883 479.721 206.688C478.447 198.944 482.319 191.506 487.363 189.162C492.967 186.513 500.049 190.181 502.902 206.688C504.532 216.113 504.277 227.169 498.826 229.869Z" fill="#F79C41"/>
<path d="M471.215 456.99C453.638 475.993 432.903 492.041 409.875 504.268C407.277 502.995 404.933 501.11 404.016 498.409C403.201 496.015 403.557 492.958 406.054 489.086C415.581 474.057 425.159 450.876 446.964 449.501C453.333 449.093 458.376 449.857 462.401 451.284C466.273 452.659 469.177 454.697 471.215 456.939V456.99Z" fill="#F79C41"/>
<path d="M362.237 523.221C342.724 528.57 322.193 531.372 300.999 531.372C291.268 531.372 281.69 530.761 272.316 529.589C272.316 526.838 272.825 523.883 274.507 521.387C276.137 518.992 278.837 517.056 283.269 516.343C299.623 513.592 307.826 502.689 331.007 504.065C343.03 504.778 351.436 510.637 356.684 516.088C359.282 518.737 361.065 521.336 362.237 523.17V523.221Z" fill="#F79C41"/>
<path d="M332.536 100.617C331.415 106.425 321.532 108.514 316.794 106.323C315.775 105.865 315.01 105.202 314.603 104.387C311.852 98.9358 329.836 88.7465 332.332 97.5603C332.638 98.6811 332.689 99.7 332.485 100.617H332.536Z" fill="#F79C41"/>
<path d="M261.419 407.267C255.305 404.21 250.516 401.815 251.892 414.093C253.267 426.372 262.794 429.123 270.997 429.123C279.199 429.123 266.921 410.018 261.47 407.317L261.419 407.267Z" fill="#EF903A"/>
<path d="M148.213 399.064C142.762 397.688 142.762 407.266 138.686 416.793C134.61 426.32 140.061 433.147 148.213 433.147C156.364 433.147 159.115 401.764 148.213 399.013V399.064Z" fill="#EF903A"/>
<path d="M123.657 276.282C118.409 273.888 112.754 270.831 111.378 276.282C110.003 281.733 122.281 296.763 129.108 296.763C135.935 296.763 138.635 283.109 123.657 276.282Z" fill="#EF903A"/>
<path d="M532.963 299.463C532.963 313.015 531.792 326.312 529.55 339.201C527.563 338.437 525.525 337.061 523.385 334.922C509.732 321.268 520.074 301.908 523.385 295.336C527.054 288 530.722 288.662 532.76 289.936C532.861 293.094 532.963 296.253 532.963 299.412V299.463Z" fill="#EF903A"/>
<path d="M392.401 314.441C384.505 313.473 380.123 319.892 392.401 325.344C404.68 330.795 403.304 315.817 392.401 314.441Z" fill="#EF903A"/>
<path d="M99.0491 253.05C95.3809 254.884 94.9734 262.577 104.5 261.253C114.028 259.877 107.252 248.975 99.0491 253.05Z" fill="#EF903A"/>
<path d="M292.798 157.576C288.722 158.952 283.271 163.027 292.798 164.403C302.325 165.778 296.874 156.2 292.798 157.576Z" fill="#EF903A"/>
<path d="M316.033 157.576C311.04 154.672 310.582 168.479 314.658 173.93C318.733 179.381 332.387 167.103 316.033 157.576Z" fill="#EF903A"/>
<path d="M359.691 480.935C356.737 481.597 355.616 486.386 363.767 489.137C371.919 491.888 371.97 478.235 359.691 480.935Z" fill="#EF903A"/>
<path d="M240.988 504.115C236.912 505.491 232.786 508.191 240.988 510.942C249.191 513.693 245.064 502.74 240.988 504.115Z" fill="#EF903A"/>
<path d="M247.814 303.538C240.885 303.844 256.017 313.065 260.092 314.441C264.168 315.817 276.446 302.163 247.814 303.538Z" fill="#EF903A"/>
<path d="M471.572 268.08C468.159 270.729 474.323 285.809 479.775 284.433C485.226 283.058 483.851 258.502 471.572 268.08Z" fill="#EF903A"/>
<path d="M361.781 363.706C361.17 366.05 360.405 368.342 359.641 370.38C355.667 381.028 332.181 385.206 325.965 380.315C325.813 380.213 325.66 380.06 325.507 379.907C320.056 374.456 325.354 360.751 328.258 353.975C332.334 344.448 352.814 337.621 359.641 340.322C365.144 342.512 364.43 353.67 361.781 363.655V363.706Z" fill="#F79C41"/>
<path d="M123.552 204.498C123.349 202.359 123.807 200.321 124.979 198.487C131.398 188.705 156.872 188.043 180.205 203.327C203.539 218.611 213.219 243.32 206.8 253.102C206.8 253.102 206.8 253.102 206.8 253.153C207.156 247.192 204.66 238.837 195.948 227.17C173.226 196.856 131.806 186.412 123.603 204.498H123.552Z" fill="#E27C37"/>
<path d="M275.577 363.502C275.271 365.387 274.609 367.17 273.692 368.8C273.132 366.457 268.088 348.065 245.111 340.372C221.268 332.424 189.171 325.343 170.066 340.372C163.952 345.161 161.354 350.103 160.59 354.586C158.705 350.816 157.992 346.995 158.654 343.174C161.558 326.464 189.63 322.439 221.93 328.094C254.23 333.698 278.532 346.791 275.628 363.451L275.577 363.502Z" fill="#E27C37"/>
<path d="M313.278 220.341C287.907 229.104 277.208 253.966 276.138 272.409C269.107 258.246 276.036 237.714 293.256 224.112C312.259 209.082 338.191 202.001 355.921 224.366C356.023 224.519 356.175 224.672 356.226 224.825C348.482 218.915 334.574 213.005 313.278 220.392V220.341Z" fill="#E27C37"/>
<path d="M361.779 363.706C361.524 353.823 359.078 342.665 348.736 345.824C338.139 349.085 326.116 368.291 326.014 380.315C325.861 380.213 325.708 380.06 325.555 379.907C320.104 374.456 325.402 360.751 328.306 353.975C332.382 344.448 352.863 337.622 359.69 340.322C365.192 342.512 364.479 353.67 361.83 363.655L361.779 363.706Z" fill="#E27C37"/>
<path d="M461.179 286.216C464.286 268.232 435.451 262.424 421.033 257.176C406.767 251.98 396.986 253.814 393.012 255.037C399.329 244.847 415.276 249.789 430.611 253.05C461.332 259.571 467.904 276.281 461.179 286.216Z" fill="#E27C37"/>
<path d="M381.497 165.727C381.192 165.014 381.039 164.199 380.937 163.333C389.547 169.039 411.607 164.402 423.783 158.9C432.495 154.926 431.069 149.118 428.369 144.941C431.578 146.928 433.871 149.679 434.737 153.449C436.826 162.772 385.828 176.528 381.548 165.727H381.497Z" fill="#E27C37"/>
<path d="M241.446 144.024C239.714 145.043 237.676 144.738 235.485 142.547C220.456 127.518 219.131 102.961 227.283 98.8855C230.492 97.2552 233.294 96.7457 235.689 97.0005C232.377 97.6118 227.283 100.516 227.283 112.539C227.283 126.397 233.957 137.758 241.395 144.024H241.446Z" fill="#E27C37"/>
<path d="M332.536 100.617C332.078 98.2735 330.244 96.0319 324.181 97.5603C319.239 98.783 317.354 102.553 316.794 106.323C315.775 105.865 315.01 105.202 314.603 104.387C311.852 98.9358 329.836 88.7465 332.332 97.5603C332.638 98.6811 332.689 99.7 332.485 100.617H332.536Z" fill="#E27C37"/>
<path d="M252.296 477.165C251.124 469.828 244.399 462.696 232.784 456.327C217.754 448.125 206.852 439.973 197.324 433.147C192.332 429.58 185.454 428.612 180.053 428.51C189.937 417.353 214.697 437.426 227.332 444.049C248.119 454.952 259.582 470.185 252.296 477.165Z" fill="#E27C37"/>
<path d="M375.384 449.042C373.193 443.591 366.57 441.349 355.565 441.349H317.355C302.733 441.349 301.867 449.806 301.816 450.214C301.409 449.144 301.154 448.023 301.001 446.8C299.626 434.522 325.558 436.611 339.211 435.898C364.838 434.522 375.333 441.553 375.384 449.042Z" fill="#E27C37"/>
<path d="M356.684 516.138C359.282 518.787 361.065 521.386 362.237 523.22C342.725 528.569 322.193 531.371 300.999 531.371C291.268 531.371 281.69 530.76 272.316 529.588C272.316 526.837 272.825 523.882 274.507 521.386C319.849 532.034 345.985 522.099 356.684 516.087V516.138Z" fill="#E27C37"/>
<path d="M471.215 456.99C453.639 475.993 432.903 492.041 409.875 504.268C407.277 502.995 404.933 501.11 404.016 498.409C442.074 484.144 458.53 458.314 462.402 451.335C466.273 452.71 469.177 454.748 471.215 456.99Z" fill="#E27C37"/>
<path d="M480.743 347.096C477.686 346.026 455.932 339.964 430.611 369.054C417.824 383.778 413.391 395.19 412.372 403.189C405.545 392.031 413.697 372.009 431.528 357.184C449.665 342.053 471.216 337.773 480.743 347.096Z" fill="#E27C37"/>
<path d="M495.107 230.124C489.401 228.646 481.963 219.883 479.721 206.688C478.447 198.944 482.319 191.506 487.363 189.162C485.172 192.066 483.134 196.499 483.797 202.612C484.917 212.496 488.637 222.38 495.056 230.124H495.107Z" fill="#E27C37"/>
<path d="M93.3928 402.935C91.8135 399.776 90.2851 396.516 88.8586 393.255C95.3798 387.345 101.799 376.545 93.6476 359.478C83.5601 338.335 78.6692 320.147 69.7025 316.478C69.7025 316.326 69.7025 316.224 69.7025 316.071C74.3897 315.46 80.809 317.599 85.4961 330.845C91.5588 348.015 119.783 389.842 93.4438 402.935H93.3928Z" fill="#E27C37"/>
<path style="mix-blend-mode:multiply" opacity="0.35" d="M532.964 299.462C532.964 313.014 531.792 326.311 529.55 339.201C521.756 384.238 500.969 424.842 471.216 456.989C453.64 475.993 432.904 492.041 409.876 504.268C394.898 512.267 378.951 518.635 362.241 523.22C342.728 528.57 322.197 531.372 301.003 531.372C291.272 531.372 281.694 530.76 272.32 529.589C193.76 519.909 127.325 470.898 93.3942 402.884C80.1989 376.392 71.8436 347.046 69.6529 316.02C69.2963 310.518 69.0416 304.964 69.0416 299.411C69.0416 264.411 76.7855 231.244 90.643 201.491C92.8847 402.375 507.694 452.863 518.801 219.425C526.901 241.536 531.741 265.175 532.76 289.884C532.862 293.043 532.964 296.201 532.964 299.36V299.462Z" fill="url(#paint1_linear_1_7181)"/>
<path style="mix-blend-mode:multiply" opacity="0.45" d="M441.411 484.094C431.527 491.634 420.981 498.41 409.926 504.32C394.948 512.319 379.001 518.687 362.291 523.272C342.778 528.622 322.246 531.424 301.052 531.424C291.322 531.424 281.744 530.812 272.369 529.641C193.809 519.961 127.375 470.95 93.4439 402.936C80.2487 376.444 71.8934 347.098 69.7027 316.072C69.3461 310.569 69.0913 305.016 69.0913 299.463C69.0913 264.463 76.8352 231.296 90.6928 201.543C103.073 174.949 120.395 151.106 141.385 131.186C76.6824 439.77 314.604 482.515 441.411 484.094Z" fill="url(#paint2_linear_1_7181)"/>
<path style="mix-blend-mode:hard-light" d="M532.963 299.463C532.963 313.015 531.792 326.312 529.55 339.202C528.327 346.13 526.85 352.957 525.067 359.682C517.017 173.115 390.669 67.0439 208.33 86.7603C236.707 74.3803 268.091 67.5024 301.002 67.5024C401.011 67.5024 486.245 130.778 518.8 219.528C526.901 241.638 531.741 265.278 532.76 289.987C532.861 293.146 532.963 296.304 532.963 299.463Z" fill="url(#paint3_linear_1_7181)"/>
<defs>
<radialGradient id="paint0_radial_1_7181" cx="0" cy="0" r="1" gradientUnits="userSpaceOnUse" gradientTransform="translate(290.761 176.681) scale(354.183 354.182)">
<stop stop-color="#FFE46A"/>
<stop offset="1" stop-color="#FFA44A"/>
</radialGradient>
<linearGradient id="paint1_linear_1_7181" x1="102.87" y1="422.091" x2="513.094" y2="230.174" gradientUnits="userSpaceOnUse">
<stop stop-color="#E27437"/>
<stop offset="1" stop-color="#E27437" stop-opacity="0.2"/>
</linearGradient>
<linearGradient id="paint2_linear_1_7181" x1="256.168" y1="634.947" x2="253.927" y2="60.1152" gradientUnits="userSpaceOnUse">
<stop stop-color="#CC622E"/>
<stop offset="1" stop-color="#CC622E" stop-opacity="0.2"/>
</linearGradient>
<linearGradient id="paint3_linear_1_7181" x1="507.337" y1="67.4005" x2="366.215" y2="223.756" gradientUnits="userSpaceOnUse">
<stop stop-color="#FFF2B6"/>
<stop offset="1" stop-color="#FFF49A" stop-opacity="0.2"/>
</linearGradient>
</defs>
</svg>
